<svg width="25" height="24" viewBox="0 0 25 24" fill="none" xmlns="http://www.w3.org/2000/svg">
<path d="M20.0189 4.88109L19.283 4.14515C19.075 3.93716 18.691 3.96917 18.451 4.25711L15.8908 6.80108C14.7388 6.30514 13.4749 6.06514 12.1468 6.06514C8.1947 6.08107 4.77092 8.38504 3.1228 11.6973C3.02677 11.9052 3.02677 12.1612 3.1228 12.3372C3.89073 13.9052 5.04281 15.2012 6.48281 16.1772L4.38682 18.3051C4.14682 18.5451 4.11481 18.9291 4.27485 19.1371L5.0108 19.8731C5.21879 20.081 5.60277 20.049 5.84277 19.7611L19.8907 5.71321C20.1947 5.47334 20.2267 5.08938 20.0187 4.88137L20.0189 4.88109ZM12.9948 9.71298C12.7228 9.64896 12.4349 9.56901 12.1628 9.56901C10.8028 9.56901 9.71489 10.657 9.71489 12.0169C9.71489 12.2889 9.77891 12.5769 9.85887 12.8489L8.78675 13.9049C8.4668 13.345 8.29081 12.7209 8.29081 12.017C8.29081 9.88899 10.0028 8.17697 12.1308 8.17697C12.8349 8.17697 13.4588 8.35295 14.0188 8.67291L12.9948 9.71298Z" fill="#666666" fill-opacity="0.8"/>
<path d="M21.1714 11.6974C20.6114 10.5774 19.8753 9.56945 18.9634 8.75342L15.9874 11.6974V12.0174C15.9874 14.1454 14.2754 15.8574 12.1474 15.8574H11.8274L9.93945 17.7454C10.6435 17.8893 11.3795 17.9854 12.0995 17.9854C16.0516 17.9854 19.4754 15.6814 21.1235 12.3532C21.2675 12.1292 21.2675 11.9053 21.1714 11.6973L21.1714 11.6974Z" fill="#666666" fill-opacity="0.8"/>
</svg>
