<svg width="25" height="25" viewBox="0 0 25 25" fill="none" xmlns="http://www.w3.org/2000/svg">
<g clip-path="url(#clip0_132_1502)">
<path d="M18.5 8.5H17.5V6.5C17.5 3.74 15.26 1.5 12.5 1.5C9.74 1.5 7.5 3.74 7.5 6.5V8.5H6.5C5.4 8.5 4.5 9.4 4.5 10.5V20.5C4.5 21.6 5.4 22.5 6.5 22.5H18.5C19.6 22.5 20.5 21.6 20.5 20.5V10.5C20.5 9.4 19.6 8.5 18.5 8.5ZM12.5 17.5C11.4 17.5 10.5 16.6 10.5 15.5C10.5 14.4 11.4 13.5 12.5 13.5C13.6 13.5 14.5 14.4 14.5 15.5C14.5 16.6 13.6 17.5 12.5 17.5ZM15.6 8.5H9.4V6.5C9.4 4.79 10.79 3.4 12.5 3.4C14.21 3.4 15.6 4.79 15.6 6.5V8.5Z" fill="black"/>
</g>
<defs>
<clipPath id="clip0_132_1502">
<rect width="24" height="24" fill="white" transform="translate(0.5 0.5)"/>
</clipPath>
</defs>
</svg>
