<svg width="33" height="33" viewBox="0 0 33 33" fill="none" xmlns="http://www.w3.org/2000/svg">
<path d="M12.2887 28.5C9.05374 28.5 6.03817 27.5591 3.5 25.9356C5.65499 26.0751 9.45807 25.7411 11.8236 23.4848C8.26508 23.3215 6.66026 20.5923 6.45094 19.426C6.75329 19.5426 8.1953 19.6826 9.00934 19.356C4.9159 18.3296 4.28793 14.7373 4.42748 13.641C5.195 14.1775 6.49745 14.3641 7.00913 14.3174C3.19479 11.5882 4.56703 7.48276 5.24151 6.59635C7.97882 10.3887 12.0812 12.5186 17.1564 12.637C17.0607 12.2174 17.0102 11.7804 17.0102 11.3316C17.0102 8.11092 19.6134 5.5 22.8247 5.5C24.5025 5.5 26.0144 6.21275 27.0757 7.35284C28.1969 7.09011 29.8843 6.47507 30.7092 5.9432C30.2934 7.43611 28.9989 8.68149 28.2159 9.14308C28.2095 9.12731 28.2224 9.15878 28.2159 9.14308C28.9037 9.03904 30.7648 8.68137 31.5 8.18256C31.1364 9.02125 29.764 10.4157 28.6377 11.1964C28.8473 20.4381 21.7765 28.5 12.2887 28.5Z" fill="#47ACDF"/>
</svg>
